<?xml version="1.0" encoding="UTF-8"?>
<svg xmlns="http://www.w3.org/2000/svg" viewBox="0 0 937 1678">
  <defs>
    <linearGradient id="wallG" x1="0" y1="0" x2="0" y2="1" gradientUnits="objectBoundingBox">
      <stop offset="0%" stop-color="#F2C4B4"/>
      <stop offset="45%" stop-color="#E8A888"/>
      <stop offset="100%" stop-color="#D47860"/>
    </linearGradient>
    <linearGradient id="ceilG" x1="0" y1="0" x2="0" y2="1" gradientUnits="objectBoundingBox">
      <stop offset="0%" stop-color="#FAF3E8"/>
      <stop offset="100%" stop-color="#F0E5D2"/>
    </linearGradient>
    <linearGradient id="floorG" x1="0" y1="0" x2="0" y2="1" gradientUnits="objectBoundingBox">
      <stop offset="0%" stop-color="#A8783A"/>
      <stop offset="100%" stop-color="#7A5828"/>
    </linearGradient>
    <linearGradient id="cabG" x1="0" y1="0" x2="1" y2="0" gradientUnits="objectBoundingBox">
      <stop offset="0%" stop-color="#4A3015"/>
      <stop offset="15%" stop-color="#5C3D1E"/>
      <stop offset="50%" stop-color="#6B4A25"/>
      <stop offset="85%" stop-color="#5C3D1E"/>
      <stop offset="100%" stop-color="#4A3015"/>
    </linearGradient>
    <linearGradient id="doorLG" x1="0" y1="0" x2="1" y2="0" gradientUnits="objectBoundingBox">
      <stop offset="0%" stop-color="#6B4A25"/>
      <stop offset="35%" stop-color="#8B6535"/>
      <stop offset="65%" stop-color="#8B6535"/>
      <stop offset="100%" stop-color="#6B4A25"/>
    </linearGradient>
    <linearGradient id="doorRG" x1="1" y1="0" x2="0" y2="0" gradientUnits="objectBoundingBox">
      <stop offset="0%" stop-color="#6B4A25"/>
      <stop offset="35%" stop-color="#8B6535"/>
      <stop offset="65%" stop-color="#8B6535"/>
      <stop offset="100%" stop-color="#6B4A25"/>
    </linearGradient>
    <radialGradient id="lampBodyG" cx="38%" cy="28%" r="65%">
      <stop offset="0%" stop-color="#EDD880"/>
      <stop offset="55%" stop-color="#C9A84C"/>
      <stop offset="100%" stop-color="#9A7C28"/>
    </radialGradient>
    <radialGradient id="lampGlowG" cx="50%" cy="30%" r="70%">
      <stop offset="0%" stop-color="#FFF5CC" stop-opacity="0.9"/>
      <stop offset="100%" stop-color="#FFF5CC" stop-opacity="0"/>
    </radialGradient>
    <linearGradient id="shadowL" x1="0" y1="0" x2="1" y2="0">
      <stop offset="0%" stop-color="#1A0800" stop-opacity="0.18"/>
      <stop offset="100%" stop-color="#1A0800" stop-opacity="0"/>
    </linearGradient>
    <linearGradient id="shadowR" x1="1" y1="0" x2="0" y2="0">
      <stop offset="0%" stop-color="#1A0800" stop-opacity="0.18"/>
      <stop offset="100%" stop-color="#1A0800" stop-opacity="0"/>
    </linearGradient>
    <radialGradient id="floorShadow" cx="50%" cy="0%" r="60%">
      <stop offset="0%" stop-color="#1A0800" stop-opacity="0.35"/>
      <stop offset="100%" stop-color="#1A0800" stop-opacity="0"/>
    </radialGradient>
  </defs>

  <!-- CEILING -->
  <rect width="937" height="195" fill="url(#ceilG)"/>

  <!-- WALLS -->
  <rect y="170" width="937" height="1170" fill="url(#wallG)"/>

  <!-- FLOOR -->
  <rect y="1340" width="937" height="338" fill="url(#floorG)"/>
  <!-- Baseboard -->
  <rect y="1334" width="937" height="10" fill="#C4A060"/>
  <rect y="1338" width="937" height="4" fill="#D4B070"/>
  <!-- Floor planks horizontal -->
  <g stroke="#8A5E28" stroke-width="1.2" fill="none" opacity="0.3">
    <line x1="0" y1="1378" x2="937" y2="1378"/>
    <line x1="0" y1="1418" x2="937" y2="1418"/>
    <line x1="0" y1="1458" x2="937" y2="1458"/>
    <line x1="0" y1="1498" x2="937" y2="1498"/>
    <line x1="0" y1="1538" x2="937" y2="1538"/>
    <line x1="0" y1="1578" x2="937" y2="1578"/>
    <line x1="0" y1="1618" x2="937" y2="1618"/>
    <line x1="0" y1="1658" x2="937" y2="1658"/>
  </g>
  <!-- Floor planks vertical -->
  <g stroke="#8A5E28" stroke-width="1" fill="none" opacity="0.18">
    <line x1="95" y1="1340" x2="95" y2="1678"/>
    <line x1="230" y1="1340" x2="230" y2="1678"/>
    <line x1="380" y1="1340" x2="380" y2="1678"/>
    <line x1="530" y1="1340" x2="530" y2="1678"/>
    <line x1="670" y1="1340" x2="670" y2="1678"/>
    <line x1="810" y1="1340" x2="810" y2="1678"/>
  </g>
  <!-- Floor top highlight -->
  <rect y="1348" width="937" height="6" fill="#B8893A" opacity="0.4"/>

  <!-- LAMP -->
  <!-- Ceiling glow -->
  <ellipse cx="468" cy="55" rx="220" ry="85" fill="url(#lampGlowG)" opacity="0.55"/>
  <!-- Cord -->
  <line x1="468" y1="0" x2="468" y2="197" stroke="#9A7C28" stroke-width="3"/>
  <line x1="469" y1="0" x2="469" y2="197" stroke="#D4B555" stroke-width="1" opacity="0.4"/>
  <!-- Lamp shade hemisphere -->
  <path d="M 393 208 Q 393 158 468 158 Q 543 158 543 208 Z" fill="url(#lampBodyG)"/>
  <!-- Shade rim (ellipse top) -->
  <ellipse cx="468" cy="208" rx="75" ry="26" fill="#C9A84C"/>
  <!-- Underside (warm glow) -->
  <ellipse cx="468" cy="212" rx="68" ry="20" fill="#FFF4B0"/>
  <!-- Rim highlight -->
  <ellipse cx="468" cy="208" rx="75" ry="26" fill="none" stroke="#B8920A" stroke-width="2"/>
  <!-- Shade sheen -->
  <ellipse cx="442" cy="180" rx="20" ry="12" fill="#EFE090" opacity="0.45" transform="rotate(-18 442 180)"/>
  <!-- Light spill downward -->
  <ellipse cx="468" cy="250" rx="160" ry="42" fill="#FFF8DC" opacity="0.12"/>

  <!-- LEFT CURTAIN -->
  <!-- Rod -->
  <rect x="-5" y="0" width="185" height="14" fill="#C9A84C" rx="7"/>
  <circle cx="180" cy="7" r="9" fill="#B8920A"/>
  <!-- Rings -->
  <g fill="#B8920A">
    <circle cx="12" cy="7" r="4.5"/>
    <circle cx="34" cy="7" r="4.5"/>
    <circle cx="58" cy="7" r="4.5"/>
    <circle cx="84" cy="7" r="4.5"/>
    <circle cx="110" cy="7" r="4.5"/>
    <circle cx="136" cy="7" r="4.5"/>
    <circle cx="160" cy="7" r="4.5"/>
  </g>
  <!-- Fabric folds -->
  <path d="M 0 14 Q 38 210 12 460 Q -8 710 22 960 Q 48 1160 18 1340 L 0 1340 Z" fill="#C06858"/>
  <path d="M 12 14 Q 82 185 58 435 Q 34 665 68 905 Q 95 1110 60 1340 L 18 1340 Q 48 1160 22 960 Q -8 710 12 460 Q 38 210 0 14 Z" fill="#D88068"/>
  <path d="M 58 14 Q 135 168 108 408 Q 82 638 118 878 Q 150 1085 112 1340 L 60 1340 Q 95 1110 68 905 Q 34 665 58 435 Q 82 185 12 14 Z" fill="#C27060"/>
  <path d="M 108 14 Q 168 158 148 388 Q 128 608 160 848 L 155 1340 L 112 1340 Q 150 1085 118 878 Q 82 638 108 408 Q 135 168 58 14 Z" fill="#D07A65"/>
  <!-- Curtain shadow on wall -->
  <rect x="145" y="14" width="55" height="1326" fill="url(#shadowL)" opacity="0.55"/>

  <!-- RIGHT CURTAIN -->
  <!-- Rod -->
  <rect x="758" y="0" width="185" height="14" fill="#C9A84C" rx="7"/>
  <circle cx="758" cy="7" r="9" fill="#B8920A"/>
  <g fill="#B8920A">
    <circle cx="777" cy="7" r="4.5"/>
    <circle cx="801" cy="7" r="4.5"/>
    <circle cx="827" cy="7" r="4.5"/>
    <circle cx="853" cy="7" r="4.5"/>
    <circle cx="879" cy="7" r="4.5"/>
    <circle cx="905" cy="7" r="4.5"/>
    <circle cx="929" cy="7" r="4.5"/>
  </g>
  <path d="M 937 14 Q 898 210 918 460 Q 938 710 908 960 L 908 1340 L 937 1340 Z" fill="#C06858"/>
  <path d="M 908 14 Q 852 185 872 435 Q 890 665 852 905 L 845 1340 L 908 1340 Q 878 1160 908 960 Q 938 710 918 460 Q 898 210 937 14 Z" fill="#D88068"/>
  <path d="M 852 14 Q 800 168 818 408 Q 834 638 795 878 L 790 1340 L 845 1340 L 852 905 Q 890 665 872 435 Q 852 185 908 14 Z" fill="#C27060"/>
  <!-- Curtain shadow on right wall -->
  <rect x="737" y="14" width="55" height="1326" fill="url(#shadowR)" opacity="0.55"/>

  <!-- WARDROBE CABINET -->
  <!-- Shadow behind cabinet -->
  <rect x="177" y="492" width="568" height="835" fill="#2A1808" opacity="0.22" rx="4"/>

  <!-- Cabinet body -->
  <rect x="182" y="487" width="558" height="825" fill="url(#cabG)" rx="3"/>

  <!-- TOP CORNICE -->
  <rect x="166" y="474" width="590" height="24" fill="#3A2510" rx="3"/>
  <rect x="170" y="478" width="582" height="15" fill="#5A3D20"/>
  <rect x="166" y="494" width="590" height="6" fill="#6B4A25"/>

  <!-- LEFT DOOR x 187-459, y 487-1309 -->
  <rect x="187" y="499" width="272" height="813" fill="url(#doorLG)"/>
  <rect x="190" y="502" width="266" height="807" fill="#8B6535" rx="1"/>
  <rect x="193" y="505" width="260" height="801" fill="#7A5530"/>
  <rect x="204" y="518" width="237" height="378" fill="#6B4A25" rx="2"/>
  <rect x="207" y="521" width="231" height="372" fill="#8B6540" rx="1"/>
  <rect x="207" y="521" width="116" height="2" fill="#A07850" opacity="0.45"/>
  <rect x="207" y="521" width="2" height="186" fill="#A07850" opacity="0.3"/>
  <g stroke="#6B4A25" stroke-width="1" fill="none" opacity="0.28">
    <line x1="215" y1="521" x2="215" y2="893"/>
    <line x1="238" y1="521" x2="238" y2="893"/>
    <line x1="262" y1="521" x2="262" y2="893"/>
    <line x1="288" y1="521" x2="288" y2="893"/>
    <line x1="315" y1="521" x2="315" y2="893"/>
    <line x1="343" y1="521" x2="343" y2="893"/>
    <line x1="370" y1="521" x2="370" y2="893"/>
    <line x1="398" y1="521" x2="398" y2="893"/>
    <line x1="422" y1="521" x2="422" y2="893"/>
  </g>
  <g stroke="#9B7545" stroke-width="1.2" fill="none" opacity="0.15">
    <line x1="226" y1="521" x2="226" y2="893"/>
    <line x1="252" y1="521" x2="252" y2="893"/>
    <line x1="302" y1="521" x2="302" y2="893"/>
    <line x1="355" y1="521" x2="355" y2="893"/>
    <line x1="412" y1="521" x2="412" y2="893"/>
  </g>
  <rect x="204" y="896" width="237" height="14" fill="#4A3018"/>
  <rect x="204" y="898" width="237" height="8" fill="#3A2510"/>
  <rect x="204" y="910" width="237" height="394" fill="#6B4A25" rx="2"/>
  <rect x="207" y="913" width="231" height="388" fill="#8B6540" rx="1"/>
  <g stroke="#6B4A25" stroke-width="1" fill="none" opacity="0.28">
    <line x1="215" y1="913" x2="215" y2="1301"/>
    <line x1="238" y1="913" x2="238" y2="1301"/>
    <line x1="262" y1="913" x2="262" y2="1301"/>
    <line x1="288" y1="913" x2="288" y2="1301"/>
    <line x1="315" y1="913" x2="315" y2="1301"/>
    <line x1="343" y1="913" x2="343" y2="1301"/>
    <line x1="370" y1="913" x2="370" y2="1301"/>
    <line x1="398" y1="913" x2="398" y2="1301"/>
    <line x1="422" y1="913" x2="422" y2="1301"/>
  </g>
  <rect x="447" y="685" width="10" height="66" fill="#C9A84C" rx="5"/>
  <ellipse cx="452" cy="685" rx="9" ry="6" fill="#D4B555"/>
  <ellipse cx="452" cy="751" rx="9" ry="6" fill="#D4B555"/>

  <!-- CENTER DIVIDER -->
  <rect x="459" y="487" width="18" height="825" fill="#2A1808"/>
  <rect x="462" y="487" width="12" height="825" fill="#3A2510"/>
  <rect x="465" y="487" width="5" height="825" fill="#5A3D20" opacity="0.4"/>

  <!-- RIGHT DOOR x 477-740, y 487-972 -->
  <rect x="477" y="499" width="263" height="473" fill="url(#doorRG)"/>
  <rect x="480" y="502" width="257" height="467" fill="#8B6535" rx="1"/>
  <rect x="483" y="505" width="251" height="461" fill="#7A5530"/>
  <rect x="494" y="518" width="228" height="438" fill="#6B4A25" rx="2"/>
  <rect x="497" y="521" width="222" height="432" fill="#8B6540" rx="1"/>
  <rect x="497" y="521" width="111" height="2" fill="#A07850" opacity="0.45"/>
  <rect x="497" y="521" width="2" height="200" fill="#A07850" opacity="0.3"/>
  <g stroke="#6B4A25" stroke-width="1" fill="none" opacity="0.28">
    <line x1="505" y1="521" x2="505" y2="953"/>
    <line x1="528" y1="521" x2="528" y2="953"/>
    <line x1="554" y1="521" x2="554" y2="953"/>
    <line x1="582" y1="521" x2="582" y2="953"/>
    <line x1="612" y1="521" x2="612" y2="953"/>
    <line x1="642" y1="521" x2="642" y2="953"/>
    <line x1="670" y1="521" x2="670" y2="953"/>
    <line x1="698" y1="521" x2="698" y2="953"/>
    <line x1="715" y1="521" x2="715" y2="953"/>
  </g>
  <g stroke="#9B7545" stroke-width="1.2" fill="none" opacity="0.15">
    <line x1="516" y1="521" x2="516" y2="953"/>
    <line x1="568" y1="521" x2="568" y2="953"/>
    <line x1="628" y1="521" x2="628" y2="953"/>
    <line x1="685" y1="521" x2="685" y2="953"/>
  </g>
  <rect x="477" y="685" width="10" height="66" fill="#C9A84C" rx="5"/>
  <ellipse cx="482" cy="685" rx="9" ry="6" fill="#D4B555"/>
  <ellipse cx="482" cy="751" rx="9" ry="6" fill="#D4B555"/>

  <!-- DRAWERS x 477-740, y 972-1309 -->
  <rect x="477" y="972" width="263" height="340" fill="#5A3D20"/>
  <rect x="483" y="980" width="251" height="97" fill="#6B4A25" rx="2"/>
  <rect x="487" y="984" width="243" height="89" fill="#7A5530"/>
  <rect x="572" y="1020" width="64" height="12" fill="#C9A84C" rx="6"/>
  <rect x="573" y="1021" width="62" height="10" fill="#D4B555" rx="5"/>
  <rect x="483" y="1083" width="251" height="97" fill="#6B4A25" rx="2"/>
  <rect x="487" y="1087" width="243" height="89" fill="#7A5530"/>
  <rect x="572" y="1123" width="64" height="12" fill="#C9A84C" rx="6"/>
  <rect x="573" y="1124" width="62" height="10" fill="#D4B555" rx="5"/>
  <rect x="483" y="1186" width="251" height="97" fill="#6B4A25" rx="2"/>
  <rect x="487" y="1190" width="243" height="89" fill="#7A5530"/>
  <rect x="572" y="1226" width="64" height="12" fill="#C9A84C" rx="6"/>
  <rect x="573" y="1227" width="62" height="10" fill="#D4B555" rx="5"/>
  <rect x="483" y="1289" width="251" height="22" fill="#6B4A25" rx="2"/>
  <rect x="487" y="1292" width="243" height="16" fill="#7A5530"/>

  <!-- BOTTOM PLINTH -->
  <rect x="166" y="1309" width="590" height="28" fill="#3A2510" rx="2"/>
  <rect x="170" y="1313" width="582" height="18" fill="#4A3018"/>
  <rect x="192" y="1337" width="34" height="8" fill="#2A1808" rx="3"/>
  <rect x="710" y="1337" width="34" height="8" fill="#2A1808" rx="3"/>
  <rect x="380" y="1337" width="30" height="8" fill="#2A1808" rx="3"/>
  <rect x="528" y="1337" width="30" height="8" fill="#2A1808" rx="3"/>

  <!-- Floor shadow -->
  <ellipse cx="463" cy="1347" rx="285" ry="16" fill="#1A0800" opacity="0.28"/>

  <!-- ITEMS ON CABINET TOP -->
  <ellipse cx="262" cy="477" rx="17" ry="5" fill="#9A7828"/>
  <path d="M 248 478 Q 244 447 252 422 Q 262 410 276 422 Q 282 447 278 478 Z" fill="#C9A84C"/>
  <path d="M 252 422 Q 262 416 276 422 Q 270 413 262 413 Q 255 413 252 422 Z" fill="#D4B555"/>
  <line x1="258" y1="422" x2="250" y2="386" stroke="#B8A880" stroke-width="2"/>
  <line x1="263" y1="417" x2="258" y2="378" stroke="#B8A880" stroke-width="2"/>
  <line x1="268" y1="420" x2="278" y2="381" stroke="#C0B088" stroke-width="1.5"/>
  <line x1="273" y1="424" x2="284" y2="393" stroke="#C0B088" stroke-width="1.5"/>
  <ellipse cx="250" cy="383" rx="7" ry="10" fill="#DDD0B0" opacity="0.85"/>
  <ellipse cx="258" cy="376" rx="6" ry="9" fill="#E2D6BC" opacity="0.75"/>
  <ellipse cx="278" cy="379" rx="7" ry="10" fill="#DDD0B0" opacity="0.85"/>
  <ellipse cx="284" cy="391" rx="5" ry="8" fill="#E2D6BC" opacity="0.7"/>
  <rect x="638" y="464" width="52" height="16" fill="#9B4A35" rx="2"/>
  <rect x="638" y="461" width="52" height="6" fill="#AB5A45" rx="2"/>
  <rect x="634" y="461" width="9" height="22" fill="#8B3A25"/>
  <rect x="638" y="450" width="44" height="14" fill="#6B7A3A" rx="2"/>
  <rect x="638" y="448" width="44" height="5" fill="#7B8A4A" rx="2"/>
  <rect x="634" y="448" width="8" height="19" fill="#5B6A2A"/>

  <!-- OLIVE TREE -->
  <path d="M 808 1310 Q 806 1342 814 1347 L 898 1347 Q 906 1342 904 1310 Z" fill="#8B6535"/>
  <ellipse cx="856" cy="1310" rx="50" ry="16" fill="#9B7545"/>
  <ellipse cx="856" cy="1310" rx="38" ry="11" fill="#7A5530"/>
  <path d="M 840 1310 Q 844 1210 841 1105 Q 838 1025 846 962" stroke="#6B4A25" stroke-width="13" fill="none" stroke-linecap="round"/>
  <path d="M 874 1310 Q 870 1210 873 1105 Q 876 1025 868 962" stroke="#5A3D1E" stroke-width="7" fill="none" stroke-linecap="round" opacity="0.4"/>
  <path d="M 843 1148 Q 808 1088 782 1035" stroke="#5A3D1E" stroke-width="8" fill="none" stroke-linecap="round"/>
  <path d="M 847 1095 Q 818 1038 798 988" stroke="#5A3D1E" stroke-width="6" fill="none" stroke-linecap="round"/>
  <path d="M 860 1048 Q 900 998 925 958" stroke="#5A3D1E" stroke-width="8" fill="none" stroke-linecap="round"/>
  <path d="M 854 998 Q 875 948 884 908" stroke="#5A3D1E" stroke-width="5" fill="none" stroke-linecap="round"/>
  <path d="M 845 962 Q 818 912 808 870" stroke="#5A3D1E" stroke-width="6" fill="none" stroke-linecap="round"/>
  <path d="M 856 962 Q 888 910 904 870" stroke="#5A3D1E" stroke-width="5" fill="none" stroke-linecap="round"/>
  <ellipse cx="790" cy="1030" rx="42" ry="30" fill="#5A7A3A" opacity="0.92" transform="rotate(-12 790 1030)"/>
  <ellipse cx="774" cy="1020" rx="34" ry="23" fill="#6B8B4A" transform="rotate(8 774 1020)"/>
  <ellipse cx="808" cy="1014" rx="38" ry="26" fill="#4A6A2A" opacity="0.82"/>
  <ellipse cx="928" cy="952" rx="40" ry="27" fill="#5A7A3A" opacity="0.9" transform="rotate(18 928 952)"/>
  <ellipse cx="912" cy="942" rx="32" ry="22" fill="#6B8B4A"/>
  <ellipse cx="882" cy="902" rx="38" ry="27" fill="#4A6A2A" opacity="0.88"/>
  <ellipse cx="868" cy="892" rx="30" ry="21" fill="#6B8B4A"/>
  <ellipse cx="896" cy="898" rx="32" ry="23" fill="#5A7A3A" opacity="0.9"/>
  <ellipse cx="812" cy="864" rx="44" ry="31" fill="#5A7A3A" transform="rotate(-8 812 864)"/>
  <ellipse cx="797" cy="854" rx="35" ry="24" fill="#6B8B4A" opacity="0.9"/>
  <ellipse cx="832" cy="848" rx="40" ry="28" fill="#4A6A2A" opacity="0.82"/>
  <ellipse cx="847" cy="950" rx="48" ry="34" fill="#5A7A3A" opacity="0.9"/>
  <ellipse cx="858" cy="940" rx="40" ry="28" fill="#6B8B4A"/>
  <ellipse cx="836" cy="935" rx="36" ry="26" fill="#4A6A2A" opacity="0.82"/>
  <ellipse cx="872" cy="938" rx="34" ry="24" fill="#6B8B4A" opacity="0.9"/>
  <circle cx="788" cy="1034" r="4.5" fill="#8B7E3A"/>
  <circle cx="810" cy="1020" r="3.5" fill="#9B8E4A"/>
  <circle cx="928" cy="956" r="4" fill="#8B7E3A"/>
  <circle cx="873" cy="905" r="3.5" fill="#9B8E4A"/>
  <circle cx="815" cy="867" r="4" fill="#8B7E3A"/>
  <circle cx="850" cy="952" r="4" fill="#9B8E4A"/>

  <!-- AMBIENT -->
  <rect width="200" height="1340" fill="url(#shadowL)"/>
  <rect x="737" width="200" height="1340" fill="url(#shadowR)"/>
  <ellipse cx="468" cy="380" rx="320" ry="220" fill="#FFD580" opacity="0.04"/>
  <rect y="158" width="937" height="28" fill="#1A0800" opacity="0.06"/>
</svg>